<?xml version="1.0" standalone="no"?>
<!DOCTYPE svg PUBLIC "-//W3C//DTD SVG 20010904//EN"
 "http://www.w3.org/TR/2001/REC-SVG-20010904/DTD/svg10.dtd">
<svg version="1.0" xmlns="http://www.w3.org/2000/svg"
 width="400.000000pt" height="400.000000pt" viewBox="0 0 400.000000 400.000000"
 preserveAspectRatio="xMidYMid meet">
<metadata>
Created by potrace 1.14, written by Peter Selinger 2001-2017
</metadata>
<g transform="translate(0.000000,400.000000) scale(0.100000,-0.100000)"
fill="#000000" stroke="none">
<path d="M134 3503 c73 -120 147 -242 165 -270 l33 -53 56 0 c183 0 2381 1
2495 2 76 0 141 -2 144 -5 3 -3 -10 -32 -28 -64 -19 -32 -38 -66 -44 -76 -5
-9 -69 -120 -141 -245 -72 -125 -208 -360 -302 -524 -94 -163 -239 -415 -323
-560 -84 -144 -160 -276 -169 -293 -41 -72 -258 -448 -307 -533 -50 -86 -53
-95 -39 -111 9 -10 16 -20 16 -23 0 -2 69 -109 153 -236 l153 -232 374 642
c206 354 380 652 386 663 12 21 287 495 399 685 37 63 79 135 93 160 27 49 60
104 79 135 7 11 27 47 46 80 29 52 377 650 563 968 l63 107 -1999 0 -1998 0
132 -217z"/>
<path d="M562 2842 c-35 -2 -62 -6 -60 -10 2 -4 34 -57 71 -117 38 -61 72
-117 77 -125 5 -8 50 -81 100 -162 l92 -148 156 -1 c450 -2 470 -3 464 -19 -3
-8 -36 -73 -72 -145 -165 -323 -213 -420 -213 -430 0 -6 60 -112 133 -235 73
-124 138 -235 144 -247 15 -30 22 -29 38 7 7 17 16 30 20 30 5 0 8 4 8 9 0 5
34 67 76 137 42 71 85 145 95 164 11 19 28 49 38 65 22 37 217 369 241 410 10
17 62 107 117 200 55 94 159 270 231 393 l130 222 -51 0 c-385 3 -1788 4
-1835 2z"/>
</g>
</svg>
